<?xml version="1.0" standalone="no"?>
<!DOCTYPE svg PUBLIC "-//W3C//DTD SVG 20010904//EN"
 "http://www.w3.org/TR/2001/REC-SVG-20010904/DTD/svg10.dtd">
<svg version="1.0" xmlns="http://www.w3.org/2000/svg"
 width="500.000000pt" height="500.000000pt" viewBox="0 0 500.000000 500.000000"
 preserveAspectRatio="xMidYMid meet">

<g transform="translate(0.000000,500.000000) scale(0.100000,-0.100000)"
fill="#000000" stroke="none">
<path d="M2425 4043 c-128 -12 -232 -58 -299 -135 -26 -29 -73 -106 -106 -172
-50 -99 -60 -128 -60 -170 0 -29 6 -61 14 -72 8 -11 19 -40 26 -64 7 -25 20
-61 30 -80 17 -33 25 -113 20 -185 -2 -30 -2 -30 -10 -5 l-8 25 -1 -26 c-1
-15 5 -41 12 -59 l14 -32 6 63 c4 34 7 93 7 131 0 72 14 94 44 69 12 -10 15
-8 18 11 2 15 11 24 26 26 22 3 22 3 6 -32 -17 -34 -17 -37 9 -98 15 -35 27
-67 27 -72 0 -5 -20 -6 -45 -4 -36 5 -43 3 -35 -7 6 -7 24 -15 41 -19 29 -6
30 -6 13 -31 -16 -25 -16 -27 7 -53 13 -15 26 -29 29 -32 3 -3 13 -18 23 -33
17 -26 21 -28 65 -21 51 7 51 2 1 -25 -18 -10 -42 -30 -53 -45 -18 -24 -19
-31 -8 -84 10 -47 19 -64 57 -100 25 -24 45 -45 45 -46 0 -2 -7 -7 -16 -10 -9
-3 -29 4 -47 18 -18 13 -56 38 -85 55 l-52 31 6 -28 c3 -15 13 -50 21 -79 11
-35 13 -69 9 -105 -8 -64 -18 -83 -40 -75 -13 5 -16 22 -16 78 0 69 -1 71 -18
56 -18 -16 -40 -22 -74 -19 -24 3 -23 48 1 88 10 17 35 41 55 53 20 13 36 28
36 34 -1 16 -36 116 -43 124 -10 9 -127 -18 -172 -40 -22 -11 -50 -29 -62 -40
-12 -10 -26 -16 -31 -13 -6 3 -41 -6 -78 -20 -60 -23 -73 -24 -102 -14 -18 6
-46 9 -63 5 -46 -10 -60 -41 -57 -123 2 -42 -2 -75 -8 -82 -6 -6 -53 -27 -105
-47 -81 -30 -107 -36 -183 -37 -94 -1 -128 -18 -59 -30 21 -3 47 -14 58 -22
19 -16 19 -16 1 -10 -25 9 -119 -19 -173 -51 -34 -20 -43 -22 -43 -10 0 13 -6
13 -38 4 -68 -20 -143 -108 -162 -193 -6 -27 -15 -57 -20 -66 -6 -9 -13 -35
-16 -58 -6 -36 -24 -58 -24 -28 0 6 -9 3 -19 -9 -10 -11 -29 -28 -42 -39 -84
-67 -109 -154 -90 -308 9 -71 9 -109 0 -160 -11 -67 -11 -68 19 -109 44 -63
88 -155 106 -224 21 -85 64 -167 128 -246 59 -72 135 -134 284 -228 201 -127
308 -229 370 -350 27 -55 57 -98 80 -117 l37 -30 -21 -30 c-25 -34 -39 -68
-51 -123 l-9 -39 914 0 914 0 0 23 c0 12 -14 47 -31 77 -21 40 -26 56 -17 59
7 2 31 22 54 45 30 30 47 60 64 111 36 111 124 199 375 375 179 126 311 285
356 429 25 82 53 134 97 183 l37 41 6 173 c4 95 10 177 13 183 4 6 2 29 -4 51
-8 31 -22 49 -60 76 -57 41 -102 108 -145 217 -17 42 -43 91 -58 107 -25 26
-79 50 -114 50 -7 0 -28 9 -48 20 -20 11 -56 25 -80 30 -32 7 -57 23 -90 55
-24 25 -65 58 -89 73 -24 16 -56 43 -71 60 -14 17 -51 43 -81 58 -30 15 -68
43 -84 63 -27 32 -29 40 -24 83 9 69 -15 129 -61 151 -42 20 -150 24 -139 5 4
-6 -36 11 -88 39 -124 65 -146 71 -158 41 -7 -18 -9 -19 -9 -5 -1 9 -5 17 -10
17 -5 0 -5 16 -1 37 9 37 -3 132 -18 143 -4 3 -18 17 -31 33 l-24 27 32 11
c38 13 61 54 60 106 l0 38 -14 -49 c-7 -27 -21 -56 -31 -63 -21 -15 -74 -17
-74 -3 0 34 100 183 114 169 2 -2 11 -59 19 -127 8 -68 18 -126 21 -129 8 -8
48 135 41 147 -3 5 -13 10 -21 10 -12 0 -11 6 5 28 27 36 61 164 61 228 0 63
-24 134 -82 240 -84 153 -137 211 -233 254 -82 37 -216 60 -300 53z m380 -419
c17 -7 42 -25 57 -41 36 -37 78 -130 78 -171 0 -28 -3 -32 -22 -27 -13 3 -41
9 -63 14 -40 9 -40 9 -7 10 58 2 56 64 -4 105 -34 23 -37 23 -89 10 -48 -13
-124 -19 -177 -15 -30 2 -20 26 20 48 20 12 53 38 72 57 30 32 38 35 70 30 19
-4 49 -13 65 -20z m-657 -100 c2 -1 -4 -16 -12 -33 -20 -39 -20 -68 0 -79 14
-8 11 -11 -16 -21 -49 -16 -50 -15 -50 41 0 64 34 124 60 105 8 -6 16 -12 18
-13z m430 -362 c6 -18 20 -45 32 -59 11 -14 20 -30 20 -35 0 -15 -54 19 -95
61 -46 48 -59 51 -79 14 -8 -16 -35 -48 -60 -73 -39 -37 -46 -41 -46 -23 0 11
9 32 20 46 12 14 32 51 45 81 22 51 28 56 56 56 23 0 32 5 36 20 5 18 8 16 33
-17 15 -21 32 -53 38 -71z m-188 28 c-9 -21 -19 -30 -36 -30 -31 0 -30 8 2 20
14 6 28 19 31 31 3 11 8 18 11 15 2 -3 -1 -19 -8 -36z m348 -246 c12 -8 22
-12 22 -8 0 4 9 -1 20 -11 22 -20 27 -61 8 -67 -7 -3 -26 14 -41 36 -16 23
-36 47 -45 54 -24 19 8 16 36 -4z m228 -301 c21 -49 10 -66 -43 -60 -41 4 -43
3 -44 -22 0 -14 -4 -35 -9 -46 -6 -17 -9 -14 -15 18 -7 34 -2 103 12 184 l5
33 40 -38 c22 -20 47 -51 54 -69z m-1521 -1199 c10 -19 33 -48 51 -64 18 -16
44 -51 58 -79 14 -27 39 -58 55 -67 17 -10 28 -21 25 -25 -6 -10 37 -40 48
-33 4 3 8 -2 8 -10 0 -10 -15 -17 -47 -22 -74 -11 -193 36 -193 75 0 10 -8 25
-17 32 -15 13 -16 11 -10 -20 10 -49 20 -57 109 -87 61 -20 91 -25 125 -20
l45 6 -5 -122 c-5 -134 -9 -142 -75 -154 -33 -6 -104 10 -130 30 -36 26 -67
102 -73 178 -8 89 -41 171 -94 229 -19 22 -35 42 -34 47 0 4 19 21 42 37 23
17 51 47 62 68 11 20 22 37 25 37 3 0 14 -16 25 -36z m2073 -9 c11 -28 41 -59
101 -102 2 -1 -13 -21 -34 -44 -48 -53 -100 -165 -119 -254 -16 -78 -76 -227
-103 -258 -23 -26 -74 -47 -112 -47 -61 0 -76 62 -46 181 8 31 15 99 16 150 1
124 7 139 56 167 23 12 54 38 70 58 15 19 51 58 79 88 29 29 55 63 59 75 9 30
19 26 33 -14z"/>
<path d="M1600 1220 c0 -5 5 -10 11 -10 5 0 7 5 4 10 -3 6 -8 10 -11 10 -2 0
-4 -4 -4 -10z"/>
<path d="M1186 2693 c3 -14 11 -38 19 -53 14 -27 15 -27 62 -15 80 20 65 47
-44 81 l-41 13 4 -26z"/>
<path d="M1075 2629 c-4 -5 3 -25 16 -43 22 -33 24 -33 47 -18 l24 16 -31 28
c-34 30 -46 34 -56 17z"/>
<path d="M1370 2580 c0 -5 7 -10 16 -10 8 0 12 5 9 10 -3 6 -10 10 -16 10 -5
0 -9 -4 -9 -10z"/>
<path d="M471 1924 c0 -11 3 -14 6 -6 3 7 2 16 -1 19 -3 4 -6 -2 -5 -13z"/>
<path d="M508 1892 c-11 -2 -18 -13 -18 -28 0 -29 31 -94 54 -113 14 -12 16
-10 16 17 0 16 3 44 7 62 4 23 3 31 -5 26 -6 -4 -17 4 -24 17 -8 14 -20 21
-30 19z"/>
</g>
</svg>
